<svg version="1.1" xmlns="http://www.w3.org/2000/svg" xmlns:xlink="http://www.w3.org/1999/xlink" x="0px" y="0px" viewBox="0 0 1000 1000" enable-background="new 0 0 1000 1000" xml:space="preserve">
<metadata> Svg Vector Icons : http://www.onlinewebfonts.com/icon </metadata>
<g><g transform="translate(0.000000,512.000000) scale(0.100000,-0.100000)"><path d="M4798.5,5008.9c-598.4-128.5-1110.5-755.7-1474.9-1799c-134.3-389.3-235.9-824.7-347.1-1488.3c-9.6-53.7-7.7-53.7,34.5-24.9c23,17.3,145.8,97.8,272.3,180.3c126.6,80.5,234,149.6,235.9,151.5c3.8,1.9,28.8,105.5,55.6,230.1c184.1,876.5,519.7,1632.1,886.1,1998.4c71,71,184.1,159.2,251.2,195.6c115.1,61.4,138.1,67.1,287.7,67.1c188,0,276.2-36.4,464.2-189.9c203.3-164.9,483.3-602.2,629.1-980c24.9-63.3,47.9-118.9,49.9-120.8c1.9-3.8,113.2,21.1,245.5,53.7l239.8,63.3l-30.7,78.6c-207.1,535.1-471.8,962.8-761.4,1233.2c-257,239.7-498.7,349.1-788.3,360.6C4953.8,5022.4,4840.7,5018.5,4798.5,5008.9z"/><path d="M1754.8,3177.3c-249.3-42.2-498.7-136.2-677-257c-109.3-74.8-276.2-257-333.7-368.2c-203.3-377.8-172.6-834.3,92.1-1388.6C1167.9,469.3,1944.7-365,2928.5-1082.3c828.5-604.1,1862.3-1154.6,2807.8-1492.1l186-67.1l17.3,46c46,120.8,117,418.1,101.7,429.6c-7.7,7.6-105.5,47.9-216.7,86.3C4503.1-1604,3106.9-729.4,2171,206.5C1380.8,996.7,995.3,1750.4,1137.2,2228c42.2,143.8,201.4,299.2,374,368.2c268.5,107.4,619.5,145.8,1005,113.2c138.1-13.4,262.7-26.8,278.1-30.7c23-7.7,44.1,42.2,97.8,230.1c78.6,278.1,99.7,245.5-174.5,278.1C2497,3213.8,1935.1,3208,1754.8,3177.3z"/><path d="M7186.3,3175.4C6002.9,3008.6,4602.9,2437,3340.9,1604.7C2890.2,1307.4,2151.8,732,2165.2,691.8c11.5-30.7,306.9-343.3,324.1-343.3c9.6,0,88.2,61.4,176.4,136.2c387.4,335.6,995.4,759.5,1542,1074C5722.9,2431.3,7366.6,2882,8256.5,2669.1c326.1-78.6,546.6-239.7,606.1-441.1c105.5-354.8-69-830.4-538.9-1474.9c-19.2-26.8,3.8-57.5,149.6-207.1l170.7-176.4l80.6,99.7c117,147.7,335.6,483.3,408.5,627.2c354.8,703.9,337.6,1294.6-49.9,1683.9c-191.8,195.6-402.8,301.1-746.1,377.8C8129.9,3204.2,7454.8,3213.8,7186.3,3175.4z"/><path d="M4060.1,2832.1c-40.3-105.5-117-414.3-105.5-429.6c5.7-9.6,36.4-23,69-30.7c47.9-11.5,107.4,11.5,343.3,128.5c157.3,76.7,285.8,145.8,285.8,151.5c1.9,11.5-130.4,65.2-416.2,168.8l-159.2,59.5L4060.1,2832.1z"/><path d="M6672.3,2306.6c-118.9-30.7-220.5-59.5-226.3-65.2c-5.7-5.8,11.5-141.9,38.4-305c283.9-1664.7,178.4-3413.9-285.8-4771.7C6095-3134.4,5909-3527.6,5767-3742.4c-130.4-197.5-326-391.3-479.5-473.7c-115.1-61.4-138.1-67.1-287.7-67.1c-149.6,0-172.6,5.7-287.7,67.1c-477.6,258.9-909.1,1110.5-1160.3,2295.7c-5.7,23-42.2,61.4-80.6,84.4c-40.3,24.9-163,103.6-272.3,174.5c-109.3,72.9-203.3,126.6-207.1,122.8c-13.4-13.4,86.3-535.1,159.2-836.2c266.6-1093.2,736.5-1927.5,1262-2242c211-126.6,341.4-163,586.9-163c245.5,0,375.9,36.4,586.9,163c709.6,425.8,1288.8,1768.3,1474.9,3421.5c101.6,901.4,90.1,2008.1-28.8,2850c-47.9,343.3-117,707.7-132.3,705.8C6894.8,2360.3,6791.2,2335.4,6672.3,2306.6z"/><path d="M5590.6,1946.1c-145.8-59.5-264.7-113.2-264.7-120.8c0-5.7,88.2-59.5,195.6-115.1c155.4-84.4,519.8-295.4,703.9-410.4c30.7-21.1,25,72.9-28.8,414.3l-30.7,201.4l-122.8,69c-67.1,40.3-136.2,71-155.3,71C5868.7,2053.5,5734.4,2005.5,5590.6,1946.1z"/><path d="M7445.2,714.8l13.4-333.7l138.1-124.7c500.5-460.3,897.6-951.3,1112.4-1380.9c243.6-487.2,243.6-878.4-3.8-1100.9c-220.5-199.4-665.5-289.6-1208.3-245.5c-151.5,11.5-285.8,24.9-297.3,30.7c-15.3,5.7-46-71-92.1-232.1c-78.6-278.1-99.7-247.4,184.1-278.1c255.1-28.8,740.3-23,939.8,9.6c751.8,122.8,1192.9,594.6,1154.6,1237c-28.8,471.8-268.5,978.1-742.2,1572.7c-191.8,237.8-701.9,755.7-958.9,968.5c-99.7,82.5-197.5,164.9-218.7,180.3C7431.8,1048.5,7431.8,1038.9,7445.2,714.8z"/><path d="M4811.9,837.5c-366.3-103.6-608-471.8-544.7-834.3c107.4-600.3,836.2-836.2,1256.2-404.7c299.2,304.9,287.7,774.8-28.8,1066.4C5312.5,833.7,5042.1,902.7,4811.9,837.5z"/><path d="M3300.6,659.2c-23-17.3-128.5-101.7-235.9-186L2871,321.6l1.9-164.9v-163l109.3-86.3c92.1-74.8,372.1-287.7,375.9-287.7c1.9,0,1.9,241.7,3.8,537c0,295.4-3.8,537-9.6,537C3344.7,691.8,3321.7,678.3,3300.6,659.2z"/><path d="M7468.2-125.3c-7.7-5.7-13.4-82.5-15.4-166.8c0-86.3-7.7-235.9-13.4-333.7c-7.7-95.9-9.6-176.4-3.8-176.4c19.2,0,393.2,328,393.2,345.2c0,28.8-297.3,345.2-324.1,345.2C7491.2-111.8,7474-117.6,7468.2-125.3z"/><path d="M1269.6-242.3C232-1554.1,446.8-2714.4,1766.3-2940.7c212.9-36.4,717.3-36.4,985.8-1.9c109.3,15.3,199.5,28.8,203.3,32.6c1.9,3.8-24.9,113.2-61.4,243.6c-47.9,166.9-74.8,234-92.1,226.3c-13.4-5.8-147.7-19.2-299.2-30.7c-684.7-55.6-1168,92.1-1334.8,410.4c-47.9,90.1-51.8,115.1-49.9,308.8c0,182.2,7.7,230.1,53.7,354.8c99.7,262.8,260.8,544.7,504.4,880.3c19.2,26.8-3.8,57.5-149.6,207.1l-170.7,176.4L1269.6-242.3z"/><path d="M5972.3-1214.6c-143.8-88.2-331.8-195.6-416.2-239.7c-84.4-42.2-153.4-86.3-153.4-95.9c0-7.7,124.7-65.2,278.1-126.6l276.2-109.3l72.9,32.6c134.3,61.4,134.3,61.4,178.4,352.9c23,149.6,38.4,287.7,34.5,308.8C6236.9-1061.2,6200.5-1076.5,5972.3-1214.6z"/><path d="M3954.6-2164c-19.2-32.6,105.5-460.3,136.2-460.3c26.8,0,433.4,141.9,469.9,165c19.2,11.5-538.9,314.5-579.2,314.5C3973.8-2144.8,3960.4-2154.4,3954.6-2164z"/></g></g>
</svg>